# Blender 3.4.1
# www.blender.org
o Circle
v 0.000000 0.000000 -0.200000
v -0.141421 0.000000 -0.141421
v -0.200000 0.000000 0.000000
v -0.141421 0.000000 0.141421
v 0.000000 0.000000 0.200000
v 0.141421 0.000000 0.141421
v 0.200000 0.000000 0.000000
v 0.141421 0.000000 -0.141421
v 0.000000 2.400000 -0.200000
v -0.141421 2.400000 -0.141421
v -0.200000 2.400000 0.000000
v -0.141421 2.400000 0.141421
v 0.000000 2.400000 0.200000
v 0.141421 2.400000 0.141421
v 0.200000 2.400000 0.000000
v 0.141421 2.400000 -0.141421
v 0.000000 2.500000 -0.220000
v -0.155564 2.500000 -0.155564
v -0.220000 2.500000 0.000000
v -0.155564 2.500000 0.155564
v 0.000000 2.500000 0.220000
v 0.155564 2.500000 0.155564
v 0.220000 2.500000 0.000000
v 0.155564 2.500000 -0.155564
v 0.000000 2.500000 -0.160000
v -0.113137 2.500000 -0.113137
v -0.160000 2.500000 0.000000
v -0.113137 2.500000 0.113137
v 0.000000 2.500000 0.160000
v 0.113137 2.500000 0.113137
v 0.160000 2.500000 0.000000
v 0.113137 2.500000 -0.113137
v 0.000000 6.100000 -0.160000
v -0.113137 6.100000 -0.113137
v -0.160000 6.100000 0.000000
v -0.113137 6.100000 0.113137
v 0.000000 6.100000 0.160000
v 0.113137 6.100000 0.113137
v 0.160000 6.100000 0.000000
v 0.113137 6.100000 -0.113137
v 0.000000 6.197154 -0.322567
v -0.113137 6.227277 -0.286668
v -0.160000 6.300000 -0.200000
v -0.113137 6.372724 -0.113332
v -0.000000 6.402846 -0.077433
v 0.113137 6.372724 -0.113332
v 0.160000 6.300000 -0.200000
v 0.113137 6.227277 -0.286668
v 0.000000 6.260001 -0.400000
v -0.113137 6.286863 -0.399999
v -0.160000 6.400001 -0.400000
v -0.113137 6.513138 -0.400000
v -0.000000 6.560000 -0.399999
v 0.113137 6.513138 -0.400000
v 0.160000 6.400001 -0.400000
v 0.113137 6.286863 -0.399999
v 0.000000 6.296060 -2.963972
v -0.113137 6.296060 -2.963972
v -0.160000 6.400001 -2.963973
v -0.113137 6.513138 -2.963973
v -0.000000 6.560000 -2.963972
v 0.113137 6.513138 -2.963973
v 0.160000 6.400001 -2.963973
v 0.113137 6.296060 -2.963972
v -0.240000 6.640000 -3.663972
v -0.240000 6.640000 -2.963973
v 0.240000 6.640000 -2.963973
v 0.240000 6.640000 -3.663972
v 0.000000 6.640000 -2.963973
v -0.240000 6.296060 -2.963973
v 0.240000 6.296060 -2.963973
v -0.240000 6.296060 -3.663972
v 0.240000 6.296060 -3.663972
v 0.090510 6.274690 -3.008869
v 0.000000 6.274690 -3.008869
v -0.090510 6.274690 -3.008869
v -0.192000 6.274690 -3.637205
v 0.192000 6.274690 -3.637205
v 0.192000 6.274690 -3.008869
v -0.192000 6.274690 -3.008869
v 0.081459 6.173952 -3.026211
v 0.000000 6.173952 -3.026211
v -0.081459 6.173952 -3.026211
v -0.172800 6.173952 -3.593851
v 0.172800 6.173952 -3.593851
v 0.172800 6.173952 -3.026211
v -0.172800 6.173952 -3.026211
vn 0.3827 -0.0000 0.9239
vn -0.3827 -0.0000 0.9239
vn -0.9239 -0.0000 -0.3827
vn 0.3827 -0.0000 -0.9239
vn 0.9239 -0.0000 0.3827
vn -0.9239 -0.0000 0.3827
vn -0.3827 -0.0000 -0.9239
vn 0.9239 -0.0000 -0.3827
vn 0.3763 0.1817 -0.9085
vn 0.9085 0.1817 0.3763
vn -0.9085 0.1817 0.3763
vn -0.3763 0.1817 -0.9085
vn 0.9085 0.1817 -0.3763
vn 0.3763 0.1817 0.9085
vn -0.3763 0.1817 0.9085
vn -0.9085 0.1817 -0.3763
vn -0.0000 -1.0000 -0.0000
vn -0.9199 0.3163 0.2320
vn -0.3827 -0.5902 -0.7108
vn 0.8805 -0.3029 -0.3647
vn 0.2379 0.7832 0.5744
vn -0.3644 0.7994 0.4777
vn -0.9234 -0.2715 -0.2715
vn 0.3099 -0.5866 -0.7482
vn 0.8629 0.3574 0.3574
vn -0.9114 -0.3680 -0.1840
vn 0.3490 -0.8425 -0.4105
vn 0.9074 0.3759 0.1879
vn -0.9127 0.3616 0.1901
vn -0.3541 -0.8399 -0.4114
vn 0.9081 -0.3761 -0.1842
vn 0.2057 0.8662 0.4554
vn -0.3767 0.7192 0.5838
vn -0.9239 -0.3827 -0.0000
vn 0.3827 -0.9239 -0.0000
vn 0.9116 0.4110 -0.0000
vn -0.9239 0.3827 0.0014
vn -0.3827 -0.9239 -0.0000
vn 0.9239 -0.3827 -0.0000
vn -1.0000 -0.0000 -0.0000
vn -0.0000 -0.0000 1.0000
vn -0.0000 1.0000 -0.0000
vn -0.0000 -0.0000 -1.0000
vn -0.0000 0.9029 -0.4298
vn -0.2310 0.9729 0.0137
vn 0.2310 0.9729 0.0137
vn 0.4067 0.9136 -0.0000
vn -0.0000 0.1696 -0.9855
vn -0.0000 0.3953 0.9185
vn -0.9823 0.1872 -0.0000
vn -0.4067 0.9136 -0.0000
vn -0.0000 0.7815 0.6239
vn -0.0000 0.1697 -0.9855
vn 0.9823 0.1872 -0.0000
vn -0.8629 0.3574 0.3574
vn -0.3099 -0.5866 -0.7482
vn 0.9234 -0.2715 -0.2715
vn 0.3644 0.7994 0.4777
vn -0.2379 0.7832 0.5744
vn -0.8805 -0.3029 -0.3647
vn 0.3827 -0.5902 -0.7108
vn 0.9199 0.3163 0.2320
vn -0.9081 -0.3761 -0.1842
vn 0.3541 -0.8399 -0.4114
vn 0.9127 0.3616 0.1901
vn -0.9074 0.3759 0.1879
vn -0.3490 -0.8425 -0.4105
vn 0.9114 -0.3680 -0.1840
vn 0.3767 0.7192 0.5838
vn -0.2057 0.8662 0.4554
vn 0.9239 0.3827 0.0014
vn -0.9116 0.4110 -0.0000
vn -0.0000 1.0000 0.0036
vt 0.000000 0.000000
vt 0.000000 0.000000
vt 0.000000 0.000000
vt 0.000000 0.000000
vt 0.000000 0.000000
vt 0.000000 0.000000
vt 0.000000 0.000000
vt 0.000000 0.000000
vt 0.000000 0.000000
vt 0.000000 0.000000
vt 0.000000 0.000000
vt 0.000000 0.000000
vt 0.000000 0.000000
vt 0.000000 0.000000
vt 0.000000 0.000000
vt 0.000000 0.000000
vt 0.000000 0.000000
vt 0.000000 0.000000
vt 0.000000 0.000000
vt 0.000000 0.000000
vt 0.000000 0.000000
vt 0.000000 0.000000
vt 0.000000 0.000000
vt 0.000000 0.000000
vt 0.000000 0.000000
vt 0.000000 0.000000
vt 0.000000 0.000000
vt 0.000000 0.000000
vt 0.000000 0.000000
vt 0.000000 0.000000
vt 0.000000 0.000000
vt 0.000000 0.000000
vt 0.000000 0.000000
vt 0.000000 0.000000
vt 0.000000 0.000000
vt 0.000000 0.000000
vt 0.000000 0.000000
vt 0.000000 0.000000
vt 0.000000 0.000000
vt 0.000000 0.000000
vt 0.000000 0.000000
vt 0.000000 0.000000
vt 0.000000 0.000000
vt 0.000000 0.000000
vt 0.000000 0.000000
vt 0.000000 0.000000
vt 0.000000 0.000000
vt 0.000000 0.000000
vt 0.000000 0.000000
vt 0.000000 0.000000
vt 0.000000 0.000000
vt 0.000000 0.000000
vt 0.000000 0.000000
vt 0.000000 0.000000
vt 0.000000 0.000000
vt 0.000000 0.000000
vt 0.000000 0.000000
vt 0.000000 0.000000
vt 0.000000 0.000000
vt 0.000000 0.000000
vt 0.000000 0.000000
vt 0.000000 0.000000
vt 0.000000 0.000000
vt 0.000000 0.000000
vt 0.000000 0.000000
vt 0.000000 0.000000
vt 0.000000 0.000000
vt 0.000000 0.000000
vt 0.000000 0.000000
vt 0.000000 0.000000
vt 0.000000 0.000000
vt 0.000000 0.000000
vt 0.000000 0.000000
vt 0.000000 0.000000
vt 0.000000 0.000000
vt 0.000000 0.000000
vt 0.000000 0.000000
vt 0.000000 0.000000
vt 0.000000 0.000000
vt 0.000000 0.000000
vt 0.000000 0.000000
vt 0.000000 0.000000
vt 0.000000 0.000000
vt 0.000000 0.000000
vt 0.000000 0.000000
vt 0.000000 0.000000
vt 0.000000 0.000000
s 0
f 1/1/1 10/10/1 2/2/1
f 8/8/2 9/9/2 1/1/2
f 6/6/3 15/15/3 7/7/3
f 4/4/4 13/13/4 5/5/4
f 2/2/5 11/11/5 3/3/5
f 7/7/6 16/16/6 8/8/6
f 5/5/7 14/14/7 6/6/7
f 3/3/8 12/12/8 4/4/8
f 12/12/9 21/21/9 13/13/9
f 10/10/10 19/19/10 11/11/10
f 15/15/11 24/24/11 16/16/11
f 13/13/12 22/22/12 14/14/12
f 11/11/13 20/20/13 12/12/13
f 9/9/14 18/18/14 10/10/14
f 16/16/15 17/17/15 9/9/15
f 14/14/16 23/23/16 15/15/16
f 27/27/17 20/20/17 19/19/17
f 28/28/17 21/21/17 20/20/17
f 29/29/17 22/22/17 21/21/17
f 30/30/17 23/23/17 22/22/17
f 31/31/17 24/24/17 23/23/17
f 32/32/17 17/17/17 24/24/17
f 25/25/17 18/18/17 17/17/17
f 26/26/17 19/19/17 18/18/17
f 29/29/7 38/38/7 30/30/7
f 27/27/8 36/36/8 28/28/8
f 25/25/1 34/34/1 26/26/1
f 32/32/2 33/33/2 25/25/2
f 30/30/3 39/39/3 31/31/3
f 28/28/4 37/37/4 29/29/4
f 26/26/5 35/35/5 27/27/5
f 31/31/6 40/40/6 32/32/6
f 40/40/18 47/47/18 48/48/18
f 38/38/19 45/45/19 46/46/19
f 35/35/20 44/44/20 36/36/20
f 33/33/21 42/42/21 34/34/21
f 33/33/22 48/48/22 41/41/22
f 39/39/23 46/46/23 47/47/23
f 36/36/24 45/45/24 37/37/24
f 34/34/25 43/43/25 35/35/25
f 46/46/26 55/55/26 47/47/26
f 45/45/27 52/52/27 53/53/27
f 43/43/28 50/50/28 51/51/28
f 47/47/29 56/56/29 48/48/29
f 45/45/30 54/54/30 46/46/30
f 44/44/31 51/51/31 52/52/31
f 42/42/32 49/49/32 50/50/32
f 48/48/33 49/49/33 41/41/33
f 54/54/34 63/63/34 55/55/34
f 52/52/35 61/61/35 53/53/35
f 51/51/36 58/58/36 59/59/36
f 55/55/37 64/64/37 56/56/37
f 54/54/38 61/61/38 62/62/38
f 51/51/39 60/60/39 52/52/39
f 68/68/40 71/71/40 67/67/40
f 59/59/41 66/66/41 70/70/41
f 69/69/42 65/65/42 66/66/42
f 69/69/17 68/68/17 67/67/17
f 66/66/41 60/60/41 69/69/41
f 67/67/43 62/62/43 69/69/43
f 64/64/44 79/79/44 74/74/44
f 65/65/40 70/70/40 66/66/40
f 65/65/41 73/73/41 68/68/41
f 63/63/43 67/67/43 71/71/43
f 60/60/43 69/69/43 61/61/43
f 62/62/43 61/61/43 69/69/43
f 63/63/43 71/71/43 64/64/43
f 59/59/43 58/58/43 70/70/43
f 56/56/45 57/57/45 49/49/45
f 57/57/46 50/50/46 49/49/46
f 57/57/44 74/74/44 75/75/44
f 72/72/47 80/80/47 77/77/47
f 75/75/48 81/81/48 82/82/48
f 77/77/49 85/85/49 78/78/49
f 79/79/50 85/85/50 86/86/50
f 57/57/44 76/76/44 58/58/44
f 58/58/44 80/80/44 70/70/44
f 73/73/51 79/79/51 71/71/51
f 72/72/52 78/78/52 73/73/52
f 86/86/42 85/85/42 84/84/42
f 81/81/42 84/84/42 82/82/42
f 84/84/42 83/83/42 82/82/42
f 76/76/53 87/87/53 80/80/53
f 80/80/54 84/84/54 77/77/54
f 74/74/53 86/86/53 81/81/53
f 75/75/53 83/83/53 76/76/53
f 1/1/1 9/9/1 10/10/1
f 8/8/2 16/16/2 9/9/2
f 6/6/3 14/14/3 15/15/3
f 4/4/4 12/12/4 13/13/4
f 2/2/5 10/10/5 11/11/5
f 7/7/6 15/15/6 16/16/6
f 5/5/7 13/13/7 14/14/7
f 3/3/8 11/11/8 12/12/8
f 12/12/9 20/20/9 21/21/9
f 10/10/10 18/18/10 19/19/10
f 15/15/11 23/23/11 24/24/11
f 13/13/12 21/21/12 22/22/12
f 11/11/13 19/19/13 20/20/13
f 9/9/14 17/17/14 18/18/14
f 16/16/15 24/24/15 17/17/15
f 14/14/16 22/22/16 23/23/16
f 27/27/17 28/28/17 20/20/17
f 28/28/17 29/29/17 21/21/17
f 29/29/17 30/30/17 22/22/17
f 30/30/17 31/31/17 23/23/17
f 31/31/17 32/32/17 24/24/17
f 32/32/17 25/25/17 17/17/17
f 25/25/17 26/26/17 18/18/17
f 26/26/17 27/27/17 19/19/17
f 29/29/7 37/37/7 38/38/7
f 27/27/8 35/35/8 36/36/8
f 25/25/1 33/33/1 34/34/1
f 32/32/2 40/40/2 33/33/2
f 30/30/3 38/38/3 39/39/3
f 28/28/4 36/36/4 37/37/4
f 26/26/5 34/34/5 35/35/5
f 31/31/6 39/39/6 40/40/6
f 40/40/55 39/39/55 47/47/55
f 38/38/56 37/37/56 45/45/56
f 35/35/57 43/43/57 44/44/57
f 33/33/58 41/41/58 42/42/58
f 33/33/59 40/40/59 48/48/59
f 39/39/60 38/38/60 46/46/60
f 36/36/61 44/44/61 45/45/61
f 34/34/62 42/42/62 43/43/62
f 46/46/63 54/54/63 55/55/63
f 45/45/64 44/44/64 52/52/64
f 43/43/65 42/42/65 50/50/65
f 47/47/66 55/55/66 56/56/66
f 45/45/67 53/53/67 54/54/67
f 44/44/68 43/43/68 51/51/68
f 42/42/69 41/41/69 49/49/69
f 48/48/70 56/56/70 49/49/70
f 54/54/34 62/62/34 63/63/34
f 52/52/35 60/60/35 61/61/35
f 51/51/71 50/50/71 58/58/71
f 55/55/72 63/63/72 64/64/72
f 54/54/38 53/53/38 61/61/38
f 51/51/39 59/59/39 60/60/39
f 68/68/40 73/73/40 71/71/40
f 69/69/17 65/65/17 68/68/17
f 66/66/41 59/59/41 60/60/41
f 67/67/43 63/63/43 62/62/43
f 64/64/44 71/71/44 79/79/44
f 65/65/40 72/72/40 70/70/40
f 65/65/41 72/72/41 73/73/41
f 56/56/73 64/64/73 57/57/73
f 57/57/73 58/58/73 50/50/73
f 57/57/44 64/64/44 74/74/44
f 72/72/47 70/70/47 80/80/47
f 75/75/53 74/74/53 81/81/53
f 77/77/49 84/84/49 85/85/49
f 79/79/50 78/78/50 85/85/50
f 57/57/44 75/75/44 76/76/44
f 58/58/44 76/76/44 80/80/44
f 73/73/51 78/78/51 79/79/51
f 72/72/52 77/77/52 78/78/52
f 81/81/42 86/86/42 84/84/42
f 84/84/42 87/87/42 83/83/42
f 76/76/53 83/83/53 87/87/53
f 80/80/54 87/87/54 84/84/54
f 74/74/53 79/79/53 86/86/53
f 75/75/48 82/82/48 83/83/48
