# Blender v3.4.1 OBJ File: 'world_cinder_block.blend'
# www.blender.org
mtllib world_cinder_block.mtl
o Cube.004_Cube.006
v -1.520326 -0.947556 -0.587011
v -1.520326 -0.947556 -0.587011
v 1.248804 0.926544 -0.200000
v 1.520326 -1.000000 0.000000
v 1.248804 0.926544 -0.200000
v -1.520326 -1.000000 0.000000
v 1.304207 0.613115 -0.238449
v 1.248804 0.700000 0.000000
v 1.304207 0.613115 -0.238449
v -1.248804 0.615000 0.200000
v 1.248804 0.615000 0.000000
v -1.248804 0.615000 0.000000
v 1.304207 0.701886 0.238449
v 1.304207 0.613115 -0.238449
v -1.520326 -1.000000 0.545971
v 1.304207 0.701886 0.000000
v -1.520326 -1.000000 0.545971
v -1.248804 0.700000 -0.200000
v 1.304207 0.613115 0.000000
v -1.248804 0.700000 -0.200000
v -1.248804 0.700000 -0.200000
v -1.304207 0.701886 0.238449
v 1.248804 0.978485 0.178485
v -1.304207 0.701886 0.238449
v -1.304207 0.701886 0.238449
v -1.248804 0.978485 0.178485
v 1.520326 -0.947556 0.587011
v 1.520326 -1.000000 0.545971
v -1.304207 0.701886 -0.238449
v -1.304207 0.701886 -0.238449
v 1.248804 0.700000 -0.200000
v -1.304207 0.701886 -0.238449
v -1.248804 0.700000 0.200000
v -1.248804 0.700000 0.200000
v 1.304207 0.701886 -0.238449
v -1.304207 0.701886 -0.238449
v -1.248804 0.700000 0.200000
v 1.248804 1.000000 -0.126544
v 1.248804 1.000000 -0.126544
v -1.248804 1.000000 0.000000
v 1.248804 0.978485 -0.178485
v -1.248804 0.926544 -0.200000
v -1.248804 1.000000 0.000000
v -1.248804 1.000000 0.000000
v 1.248804 0.978485 -0.178485
v 1.520326 -1.000000 -0.545971
v -1.520326 -1.000000 -0.545971
v 1.248804 0.978485 -0.178485
v 1.304207 0.613115 0.238449
v -1.248804 0.926544 -0.200000
v -1.248804 0.926544 -0.200000
v 1.304207 0.613115 0.238449
v 1.304207 0.613115 0.238449
v 1.248804 0.615000 0.200000
v 1.304207 0.613115 0.238449
v 1.520326 -0.947556 0.587011
v 1.520326 -0.947556 0.587011
v -1.520326 -0.947556 0.587011
v -1.520326 -0.947556 0.587011
v 1.248804 0.700000 0.200000
v 1.248804 0.978485 0.178485
v -1.248804 0.700000 0.200000
v 1.248804 0.978485 0.178485
v -1.248804 0.978485 0.178485
v -1.248804 0.700000 0.000000
v -1.248804 0.978485 0.178485
v 1.304207 0.701886 0.238449
v 1.304207 0.701886 0.238449
v 1.304207 0.701886 0.238449
v 1.304207 0.701886 -0.238449
v 1.304207 0.701886 -0.238449
v 1.304207 0.701886 -0.238449
v 1.248804 0.700000 0.200000
v 1.248804 0.700000 0.200000
v 1.248804 0.700000 0.200000
v 1.248804 1.000000 0.000000
v 1.248804 1.000000 0.000000
v 1.248804 1.000000 0.000000
v 1.248804 0.700000 -0.200000
v 1.248804 0.700000 -0.200000
v -1.248804 1.000000 0.000000
v 1.248804 0.700000 -0.200000
v 1.304207 0.613115 0.000000
v 1.248804 1.000000 0.000000
v 1.304207 0.613115 0.000000
v 1.304207 0.613115 0.000000
v 1.520326 -1.000000 0.545971
v 1.520326 -1.000000 0.545971
v -1.520326 -1.000000 -0.545971
v -1.520326 -1.000000 -0.545971
v 1.520326 -0.947556 -0.587011
v 1.520326 -0.947556 -0.587011
v -1.304207 0.613115 0.238449
v -1.304207 0.613115 0.238449
v -1.304207 0.613115 0.238449
v -1.304207 0.613115 0.238449
v -1.304207 0.701886 0.238449
v -1.304207 0.613115 -0.238449
v -1.304207 0.613115 -0.238449
v -1.304207 0.613115 -0.238449
v -1.520326 -1.000000 0.000000
v -1.520326 -1.000000 0.000000
v -1.304207 0.701886 0.000000
v -1.520326 -1.000000 0.000000
v 1.248804 0.615000 -0.200000
v 1.248804 0.615000 -0.200000
v 1.248804 0.615000 -0.200000
v -1.304207 0.613115 0.000000
v -1.248804 0.615000 -0.200000
v -1.248804 0.615000 -0.200000
v -1.248804 0.615000 -0.200000
v 1.248804 1.000000 0.126544
v -1.248804 1.000000 0.126544
v -1.248804 0.615000 0.000000
v -1.248804 0.615000 0.000000
v -1.248804 0.615000 0.000000
v -1.304207 0.613115 0.000000
v 1.248804 0.926544 0.200000
v -1.304207 0.613115 0.000000
v -1.248804 0.926544 0.200000
v -1.520326 -0.947556 0.587011
v -1.304207 0.613115 0.000000
v 1.520326 -1.000000 -0.545971
v -1.520326 -1.000000 0.545971
v 1.520326 -1.000000 -0.545971
v 1.520326 -1.000000 0.000000
v 1.520326 -1.000000 0.000000
v 1.520326 -1.000000 0.000000
v 1.248804 0.615000 0.000000
v 1.248804 0.615000 0.000000
v 1.304207 0.613115 -0.238449
v 1.248804 0.615000 -0.200000
v 1.248804 0.615000 0.000000
v 1.248804 0.700000 0.000000
v 1.248804 0.700000 0.000000
v 1.248804 0.700000 0.000000
v 1.304207 0.701886 0.000000
v 1.304207 0.701886 0.000000
v 1.304207 0.701886 0.000000
v -1.248804 0.700000 -0.200000
v -1.248804 0.615000 0.200000
v -1.248804 0.615000 0.200000
v -1.248804 0.615000 0.200000
v 1.248804 0.615000 0.200000
v 1.248804 0.615000 0.200000
v -1.248804 0.615000 -0.200000
v 1.248804 0.615000 0.200000
v -1.248804 0.978485 -0.178485
v -1.304207 0.613115 -0.238449
v -1.248804 0.978485 -0.178485
v -1.248804 1.000000 -0.126544
v -1.248804 1.000000 -0.126544
v 1.248804 0.926544 0.200000
v 1.248804 0.926544 0.200000
v -1.248804 0.926544 0.200000
v 1.248804 1.000000 -0.126544
v -1.248804 0.926544 0.200000
v -1.248804 1.000000 -0.126544
v -1.248804 0.978485 -0.178485
v -1.248804 1.000000 0.126544
v 1.248804 0.926544 -0.200000
v -1.248804 1.000000 0.126544
v 1.248804 1.000000 0.126544
v 1.248804 1.000000 0.126544
v -1.520326 -0.947556 -0.587011
v -1.304207 0.701886 0.000000
v -1.304207 0.701886 0.000000
v -1.304207 0.701886 0.000000
v -1.248804 0.700000 0.000000
v -1.248804 0.700000 0.000000
v 1.520326 -0.947556 -0.587011
v -1.248804 0.700000 0.000000
v -1.304207 0.701886 0.000000
v 1.248804 1.000000 0.126544
v 1.248804 0.926544 0.200000
v -1.248804 1.000000 -0.126544
v -1.248804 0.700000 -0.200000
v -1.248804 0.700000 0.200000
v 1.248804 0.926544 -0.200000
v 1.248804 0.978485 -0.178485
v -1.248804 0.700000 -0.200000
v 1.248804 0.926544 -0.200000
v -1.520326 -0.947556 0.587011
v 1.248804 0.978485 0.178485
v 1.304207 0.701886 0.238449
v 1.304207 0.701886 0.238449
v 1.304207 0.701886 -0.238449
v 1.304207 0.701886 -0.238449
v -1.248804 0.700000 0.200000
v 1.248804 1.000000 -0.126544
v 1.248804 0.615000 0.200000
v -1.248804 1.000000 0.000000
v 1.304207 0.701886 0.000000
v 1.304207 0.613115 -0.238449
v 1.304207 0.613115 0.238449
v 1.520326 -1.000000 0.545971
v 1.520326 -0.947556 0.587011
v -1.520326 -0.947556 -0.587011
v -1.304207 0.613115 0.238449
v -1.304207 0.701886 0.238449
v -1.304207 0.613115 -0.238449
v -1.304207 0.701886 -0.238449
v 1.520326 -1.000000 0.000000
v 1.520326 -1.000000 0.000000
v -1.520326 -1.000000 -0.545971
v -1.520326 -1.000000 0.545971
v 1.248804 0.615000 -0.200000
v 1.520326 -0.947556 -0.587011
v 1.248804 0.615000 -0.200000
v 1.520326 -1.000000 0.000000
v -1.520326 -0.947556 -0.587011
v -1.304207 0.613115 0.000000
v -1.248804 0.615000 -0.200000
v -1.520326 -1.000000 0.000000
v -1.520326 -1.000000 0.000000
v -1.248804 0.615000 -0.200000
v -1.304207 0.613115 0.000000
v -1.304207 0.613115 0.000000
v -1.304207 0.613115 0.000000
v 1.520326 -1.000000 -0.545971
v 1.520326 -1.000000 0.000000
v 1.520326 -1.000000 0.000000
v -1.248804 0.615000 0.200000
v 1.304207 0.613115 0.000000
v 1.248804 0.700000 -0.200000
v 1.248804 1.000000 0.000000
v 1.248804 0.700000 0.000000
v 1.248804 0.700000 0.200000
v 1.304207 0.701886 0.000000
v 1.304207 0.701886 0.000000
v -1.248804 0.978485 0.178485
v -1.520326 -0.947556 0.587011
v 1.248804 0.615000 0.200000
v 1.248804 0.615000 0.200000
v -1.248804 0.978485 -0.178485
v -1.248804 1.000000 0.000000
v -1.248804 1.000000 -0.126544
v 1.248804 0.926544 0.200000
v 1.248804 0.926544 0.200000
v 1.248804 0.926544 0.200000
v 1.248804 0.926544 0.200000
v -1.248804 0.926544 0.200000
v -1.248804 0.926544 0.200000
v -1.248804 0.926544 0.200000
v -1.248804 1.000000 0.000000
v -1.248804 1.000000 0.126544
v -1.248804 1.000000 0.126544
v -1.248804 0.700000 -0.200000
v -1.248804 0.700000 0.000000
v -1.248804 0.700000 0.200000
v -1.304207 0.701886 0.000000
v 1.248804 0.615000 0.200000
v 1.248804 0.700000 0.000000
v -1.248804 0.700000 0.000000
v -1.520326 -1.000000 0.000000
v -1.520326 -1.000000 0.000000
v 1.248804 1.000000 0.000000
v 1.520326 -1.000000 0.000000
v -1.248804 1.000000 0.000000
v 1.304207 0.613115 0.000000
v -1.248804 0.615000 0.200000
v -1.304207 0.613115 0.238449
v 1.304207 0.701886 0.000000
v 1.248804 1.000000 0.126544
v -1.520326 -0.947556 0.587011
v 1.248804 0.615000 -0.200000
v 1.248804 0.615000 -0.200000
v -1.304207 0.613115 -0.238449
v 1.248804 1.000000 -0.126544
v 1.248804 0.926544 -0.200000
v 1.248804 0.926544 -0.200000
v 1.248804 0.926544 -0.200000
v -1.248804 0.926544 -0.200000
v -1.248804 0.926544 -0.200000
v -1.248804 0.926544 -0.200000
v -1.520326 -0.947556 -0.587011
vt 0.625000 0.954090
vt 0.622311 0.986553
vt 0.615818 1.000000
vt 0.826875 0.500000
vt 0.826875 0.625000
vt 0.625000 0.625000
vt 0.625000 0.125000
vt 0.375000 0.204090
vt 0.375000 0.125000
vt 0.875000 0.625000
vt 0.837500 0.625000
vt 0.865818 0.500000
vt 0.837500 0.500000
vt 0.837500 0.625000
vt 0.837500 0.500000
vt 0.826875 0.500000
vt 0.826875 0.625000
vt 0.826875 0.625000
vt 0.576875 1.000000
vt 0.576875 1.000000
vt 0.576875 0.875000
vt 0.625000 0.375000
vt 0.375000 0.488744
vt 0.375000 0.375000
vt 0.576875 0.500000
vt 0.381555 0.750000
vt 0.381555 0.500000
vt 0.587500 0.875000
vt 0.576875 1.000000
vt 0.576875 0.875000
vt 0.587500 0.500000
vt 0.576875 0.750000
vt 0.576875 0.500000
vt 0.837500 0.500000
vt 0.826875 0.625000
vt 0.826875 0.500000
vt 0.587500 1.000000
vt 0.587500 0.875000
vt 0.587500 0.875000
vt 0.576875 0.500000
vt 0.576875 0.750000
vt 0.576875 0.750000
vt 0.587500 0.750000
vt 0.587500 0.500000
vt 0.587500 0.500000
vt 0.625000 0.204090
vt 0.375000 0.250000
vt 0.375000 0.204090
vt 0.625000 0.750000
vt 0.615818 0.500000
vt 0.625000 0.500000
vt 0.615818 0.500000
vt 0.587500 0.750000
vt 0.587500 0.500000
vt 0.625000 0.488744
vt 0.375000 0.500000
vt 0.375000 0.488744
vt 0.381555 1.000000
vt 0.375000 0.875000
vt 0.576875 1.000000
vt 0.625000 0.875000
vt 0.615818 1.000000
vt 0.625000 0.954090
vt 0.625000 0.625000
vt 0.826875 0.500000
vt 0.631555 0.500000
vt 0.375000 0.204090
vt 0.625000 0.125000
vt 0.375000 0.125000
vt 0.875000 0.545910
vt 0.872311 0.513447
vt 0.865818 0.500000
vt 0.837500 0.500000
vt 0.837500 0.625000
vt 0.837500 0.625000
vt 0.826875 0.625000
vt 0.826875 0.625000
vt 0.826875 0.500000
vt 0.576875 1.000000
vt 0.576875 0.875000
vt 0.576875 0.875000
vt 0.375000 0.488744
vt 0.625000 0.375000
vt 0.375000 0.375000
vt 0.381555 0.750000
vt 0.576875 0.500000
vt 0.381555 0.500000
vt 0.576875 1.000000
vt 0.587500 0.875000
vt 0.576875 0.875000
vt 0.576875 0.750000
vt 0.587500 0.500000
vt 0.576875 0.500000
vt 0.826875 0.625000
vt 0.837500 0.500000
vt 0.826875 0.500000
vt 0.587500 0.875000
vt 0.587500 1.000000
vt 0.587500 0.875000
vt 0.576875 0.750000
vt 0.576875 0.750000
vt 0.576875 0.500000
vt 0.587500 0.500000
vt 0.587500 0.750000
vt 0.587500 0.500000
vt 0.375000 0.250000
vt 0.625000 0.204090
vt 0.375000 0.204090
vt 0.615818 0.500000
vt 0.625000 0.750000
vt 0.625000 0.500000
vt 0.587500 0.750000
vt 0.615818 0.500000
vt 0.587500 0.500000
vt 0.375000 0.500000
vt 0.625000 0.488744
vt 0.375000 0.488744
vt 0.576875 1.000000
vt 0.375000 0.875000
vt 0.381555 1.000000
vt 0.587500 1.000000
vt 0.587500 0.875000
vt 0.615818 1.000000
vt 0.587500 0.875000
vt 0.625000 0.875000
vt 0.615818 1.000000
vt 0.625000 0.875000
vt 0.625000 0.954090
vt 0.615818 1.000000
vt 0.625000 0.625000
vt 0.625000 0.511256
vt 0.631555 0.500000
vt 0.631555 0.500000
vt 0.826875 0.500000
vt 0.625000 0.625000
vt 0.625000 0.125000
vt 0.625000 0.204090
vt 0.375000 0.204090
vt 0.837500 0.625000
vt 0.837500 0.500000
vt 0.865818 0.500000
vt 0.865818 0.500000
vt 0.872311 0.513447
vt 0.875000 0.545910
vt 0.875000 0.545910
vt 0.875000 0.625000
vt 0.865818 0.500000
vt 0.837500 0.500000
vt 0.837500 0.625000
vt 0.837500 0.625000
vt 0.826875 0.500000
vt 0.826875 0.625000
vt 0.826875 0.500000
vt 0.576875 1.000000
vt 0.576875 0.875000
vt 0.576875 0.875000
vt 0.625000 0.375000
vt 0.625000 0.488744
vt 0.375000 0.488744
vt 0.576875 0.500000
vt 0.576875 0.750000
vt 0.381555 0.750000
vt 0.587500 0.875000
vt 0.587500 1.000000
vt 0.576875 1.000000
vt 0.587500 0.500000
vt 0.587500 0.750000
vt 0.576875 0.750000
vt 0.837500 0.500000
vt 0.837500 0.625000
vt 0.826875 0.625000
vt 0.587500 1.000000
vt 0.587500 1.000000
vt 0.587500 0.875000
vt 0.576875 0.500000
vt 0.576875 0.750000
vt 0.576875 0.500000
vt 0.587500 0.750000
vt 0.587500 0.750000
vt 0.587500 0.500000
vt 0.625000 0.204090
vt 0.625000 0.250000
vt 0.375000 0.250000
vt 0.625000 0.750000
vt 0.615818 0.750000
vt 0.615818 0.500000
vt 0.615818 0.500000
vt 0.615818 0.750000
vt 0.587500 0.750000
vt 0.625000 0.488744
vt 0.625000 0.500000
vt 0.375000 0.500000
vt 0.375000 0.988744
vt 0.375000 0.875000
vt 0.381555 1.000000
vt 0.375000 0.875000
vt 0.576875 0.875000
vt 0.576875 1.000000
vt 0.625000 0.875000
vt 0.587500 0.875000
vt 0.615818 1.000000
vt 0.587500 0.875000
vt 0.587500 1.000000
vt 0.615818 1.000000
vt 0.615818 1.000000
vt 0.622311 0.986553
vt 0.625000 0.954090
vt 0.631555 0.500000
vt 0.625000 0.511256
vt 0.625000 0.625000
vt 0.625000 0.625000
vt 0.826875 0.625000
vt 0.826875 0.500000
vt 0.375000 0.204090
vt 0.625000 0.204090
vt 0.625000 0.125000
vt 0.865818 0.500000
vt 0.837500 0.500000
vt 0.837500 0.625000
vt 0.837500 0.625000
vt 0.875000 0.625000
vt 0.865818 0.500000
vt 0.875000 0.625000
vt 0.875000 0.545910
vt 0.865818 0.500000
vt 0.837500 0.500000
vt 0.837500 0.500000
vt 0.837500 0.625000
vt 0.826875 0.625000
vt 0.826875 0.500000
vt 0.826875 0.500000
vt 0.576875 1.000000
vt 0.576875 0.875000
vt 0.576875 1.000000
vt 0.375000 0.488744
vt 0.625000 0.488744
vt 0.625000 0.375000
vt 0.381555 0.750000
vt 0.576875 0.750000
vt 0.576875 0.500000
vt 0.576875 1.000000
vt 0.587500 1.000000
vt 0.587500 0.875000
vt 0.576875 0.750000
vt 0.587500 0.750000
vt 0.587500 0.500000
vt 0.826875 0.625000
vt 0.837500 0.625000
vt 0.837500 0.500000
vt 0.587500 0.875000
vt 0.587500 1.000000
vt 0.587500 1.000000
vt 0.576875 0.750000
vt 0.576875 0.500000
vt 0.576875 0.500000
vt 0.587500 0.500000
vt 0.587500 0.750000
vt 0.587500 0.750000
vt 0.375000 0.250000
vt 0.625000 0.250000
vt 0.625000 0.204090
vt 0.615818 0.500000
vt 0.615818 0.750000
vt 0.625000 0.750000
vt 0.587500 0.750000
vt 0.615818 0.750000
vt 0.615818 0.500000
vt 0.375000 0.500000
vt 0.625000 0.500000
vt 0.625000 0.488744
vt 0.576875 0.875000
vt 0.375000 0.875000
vt 0.576875 1.000000
vt 0.375000 0.875000
vt 0.375000 0.988744
vt 0.381555 1.000000
vn 1.0000 -0.0000 0.0000
vn -0.9862 0.1658 0.0000
vn 0.0000 1.0000 0.0000
vn -1.0000 0.0000 0.0000
vn 0.0340 0.9994 0.0000
vn -0.0340 0.9994 0.0000
vn 0.0000 -1.0000 0.0000
vn -0.0000 0.2404 0.9707
vn 0.0000 0.0000 1.0000
vn 0.0000 0.9988 0.0490
vn 0.0000 0.9988 -0.0490
vn 0.0000 0.9239 0.3827
vn 0.0000 0.3827 0.9239
vn 0.0000 -0.6163 0.7875
vn 0.9857 0.1676 -0.0150
vn -0.9857 0.1676 0.0150
vn -0.0000 0.2404 -0.9707
vn 0.0000 0.0000 -1.0000
vn 0.0000 0.9239 -0.3827
vn 0.0000 0.3827 -0.9239
vn 0.0000 -0.6163 -0.7875
vn 0.9857 0.1676 0.0150
vn -0.9857 0.1676 -0.0150
vn 0.9862 0.1658 0.0000
usemtl None
s 1
f 264/1/1 61/2/1 239/3/1
f 261/4/2 114/5/2 255/6/2
f 259/7/3 164/8/3 77/9/3
f 44/10/4 170/11/4 244/12/4
f 33/13/5 168/14/5 24/15/5
f 142/16/6 116/17/6 212/18/6
f 252/19/5 55/20/5 86/21/5
f 258/22/7 206/23/7 102/24/7
f 147/25/8 58/26/8 56/27/8
f 138/28/1 195/29/1 85/30/1
f 185/31/9 94/32/9 52/33/9
f 200/34/4 218/35/4 96/36/4
f 228/37/6 193/38/6 136/39/6
f 144/40/10 10/41/10 93/42/10
f 37/43/11 13/44/11 74/45/11
f 113/46/12 23/47/12 112/48/12
f 231/49/13 154/50/13 63/51/13
f 238/52/9 189/53/9 60/54/9
f 196/55/14 121/56/14 124/57/14
f 27/58/15 128/59/15 233/60/15
f 76/61/1 272/62/1 39/63/1
f 101/64/16 111/65/16 2/66/16
f 190/67/3 192/68/3 84/69/3
f 176/70/4 150/71/4 273/72/4
f 248/73/5 251/74/5 65/75/5
f 219/76/6 12/77/6 216/78/6
f 107/79/5 129/80/5 224/81/5
f 205/82/7 127/83/7 6/84/7
f 1/85/17 106/86/17 91/87/17
f 194/88/1 230/89/1 19/90/1
f 100/91/18 187/92/18 7/93/18
f 217/94/4 202/95/4 98/96/4
f 16/97/6 225/98/6 8/99/6
f 149/100/11 146/101/11 132/102/11
f 35/103/10 21/104/10 80/105/10
f 180/106/19 237/107/19 156/108/19
f 179/109/20 159/110/20 41/111/20
f 140/112/18 161/113/18 31/114/18
f 198/115/21 220/116/21 47/117/21
f 207/118/22 4/119/22 208/120/22
f 75/121/1 253/122/1 240/123/1
f 135/124/1 257/125/1 241/126/1
f 78/127/1 163/128/1 153/129/1
f 256/130/4 17/131/4 265/132/4
f 59/133/23 141/134/23 104/135/23
f 43/136/3 162/137/3 174/138/3
f 254/139/4 34/140/4 243/141/4
f 242/142/4 64/143/4 160/144/4
f 246/145/4 245/146/4 155/147/4
f 250/148/5 172/149/5 173/150/5
f 223/151/6 122/152/6 95/153/6
f 145/154/5 260/155/5 130/156/5
f 126/157/7 87/158/7 15/159/7
f 191/160/8 143/161/8 232/162/8
f 263/163/1 68/164/1 53/165/1
f 67/166/9 25/167/9 262/168/9
f 22/169/4 167/170/4 119/171/4
f 73/172/6 69/173/6 139/174/6
f 234/175/10 199/176/10 49/177/10
f 178/178/11 97/179/11 186/180/11
f 247/181/12 26/182/12 184/183/12
f 66/184/13 157/185/13 175/186/13
f 118/187/9 120/188/9 62/189/9
f 88/190/14 57/191/14 183/192/14
f 28/193/1 204/194/1 197/195/1
f 203/196/24 133/197/24 54/198/24
f 226/199/1 227/200/1 5/201/1
f 134/202/1 82/203/1 271/204/1
f 270/205/1 48/206/1 269/207/1
f 276/208/4 90/209/4 215/210/4
f 214/211/2 115/212/2 213/213/2
f 38/214/3 151/215/3 40/216/3
f 274/217/4 20/218/4 169/219/4
f 249/220/4 81/221/4 275/222/4
f 236/223/4 152/224/4 51/225/4
f 18/226/5 30/227/5 166/228/5
f 117/229/6 109/230/6 99/231/6
f 266/232/5 83/233/5 14/234/5
f 89/235/7 125/236/7 210/237/7
f 211/238/17 110/239/17 267/240/17
f 9/241/1 70/242/1 137/243/1
f 268/244/18 32/245/18 72/246/18
f 108/247/4 103/248/4 29/249/4
f 229/250/6 71/251/6 79/252/6
f 201/253/11 209/254/11 131/255/11
f 188/256/10 36/257/10 177/258/10
f 45/259/19 148/260/19 158/261/19
f 3/262/20 50/263/20 235/264/20
f 181/265/18 42/266/18 182/267/18
f 165/268/21 92/269/21 123/270/21
f 11/271/24 222/272/24 105/273/24
f 221/274/1 46/275/1 171/276/1
